<svg width="52" height="51" viewBox="0 0 52 51" fill="none" xmlns="http://www.w3.org/2000/svg">
<path d="M47.083 19.1255V31.8755C47.083 37.188 46.0205 40.9067 43.6405 43.308L30.083 29.7505L46.5093 13.3242C46.8918 15.003 47.083 16.9155 47.083 19.1255Z" stroke="black" stroke-width="4" stroke-linecap="round" stroke-linejoin="round"/>
<path d="M46.5093 13.3238L13.6567 46.1762C7.26048 44.71 4.58301 40.29 4.58301 31.875V19.125C4.58301 8.5 8.83301 4.25 19.458 4.25H32.208C40.623 4.25 45.043 6.92751 46.5093 13.3238Z" stroke="#9E9E9E" stroke-width="4" stroke-linecap="round" stroke-linejoin="round"/>
<path d="M43.641 43.3075C41.2398 45.6875 37.521 46.75 32.2085 46.75H19.4585C17.2485 46.75 15.336 46.5587 13.6572 46.1762L30.0835 29.75L43.641 43.3075Z" stroke="black" stroke-width="4" stroke-linecap="round" stroke-linejoin="round"/>
<path d="M13.5927 16.9578C15.0377 10.7315 24.3877 10.7315 25.8327 16.9578C26.6615 20.6128 24.3665 23.7153 22.3477 25.6278C20.8815 27.0303 18.5652 27.0303 17.0777 25.6278C15.059 23.7153 12.7427 20.6128 13.5927 16.9578Z" stroke="#9E9E9E" stroke-width="4"/>
<path d="M19.6592 18.4873H19.6783" stroke="#9E9E9E" stroke-width="4" stroke-linecap="round" stroke-linejoin="round"/>
</svg>
