<svg width="47" height="46" viewBox="0 0 47 46" fill="none" xmlns="http://www.w3.org/2000/svg">
<path d="M34.0874 25.9171V32.1697C34.0874 40.5065 30.7526 43.8413 22.4158 43.8413H14.4958C6.15896 43.8413 2.82422 40.5065 2.82422 32.1697V24.2497C2.82422 15.9129 6.15896 12.5781 14.4958 12.5781H20.7484" stroke="black" stroke-width="3.67802" stroke-linecap="round" stroke-linejoin="round"/>
<path d="M34.088 25.9171H27.4185C22.4164 25.9171 20.749 24.2497 20.749 19.2476V12.5781L34.088 25.9171Z" stroke="#9E9E9E" stroke-width="3.12632" stroke-linecap="round" stroke-linejoin="round"/>
<path d="M13.2451 8.40986C13.2451 4.95007 16.038 2.15723 19.4977 2.15723H32.003" stroke="black" stroke-width="3.67802" stroke-linecap="round" stroke-linejoin="round"/>
<path d="M44.508 14.6621V27.5634C44.508 30.7939 41.8819 33.42 38.6514 33.42" stroke="black" stroke-width="3.67802" stroke-linecap="round" stroke-linejoin="round"/>
<path d="M44.5082 14.6625H38.2556C33.5661 14.6625 32.0029 13.0993 32.0029 8.40986V2.15723L44.5082 14.6625Z" stroke="#9E9E9E" stroke-width="3.67802" stroke-linecap="round" stroke-linejoin="round"/>
</svg>
