<svg width="51" height="51" viewBox="0 0 51 51" fill="none" xmlns="http://www.w3.org/2000/svg">
<path d="M46.75 17.5315V28.9853C46.75 33.9365 43.435 37.2515 38.4837 37.2515H34V26.9665C34 24.7778 33.1287 22.674 31.5775 21.1228L26.4988 16.0653C24.9475 14.514 22.8438 13.6428 20.655 13.6428H17V12.4528C17 7.50152 20.315 4.18652 25.2663 4.18652H33.405C35.5938 4.18652 37.6975 5.05777 39.2487 6.60902L44.3275 11.6878C45.8787 13.239 46.75 15.3428 46.75 17.5315Z" stroke="#9E9E9E" stroke-width="4" stroke-linecap="round" stroke-linejoin="round"/>
<path d="M34 26.9663V38.4201C34 43.3926 30.685 46.6863 25.7337 46.6863H12.5162C7.565 46.6863 4.25 43.3926 4.25 38.4201V21.9088C4.25 16.9363 7.565 13.6426 12.5162 13.6426H20.655C22.8438 13.6426 24.9475 14.5138 26.4988 16.0651L31.5775 21.1226C33.1287 22.6738 34 24.7776 34 26.9663Z" stroke="#3D4754" stroke-width="4" stroke-linecap="round" stroke-linejoin="round"/>
</svg>
