<svg width="51" height="51" viewBox="0 0 51 51" fill="none" xmlns="http://www.w3.org/2000/svg">
<path d="M46.75 32.9375C46.75 40.5663 40.5663 46.75 32.9375 46.75C25.3088 46.75 19.125 40.5663 19.125 32.9375C19.125 32.5763 19.1463 32.2363 19.1675 31.875H28.5388C32.4063 31.875 34.8712 27.7313 33.0012 24.3313L30.2813 19.38C31.1313 19.21 32.0238 19.125 32.9375 19.125C40.5663 19.125 46.75 25.3088 46.75 32.9375Z" stroke="#424242" stroke-width="4" stroke-linecap="round" stroke-linejoin="round"/>
<path d="M28.5385 31.8746H9.34974C5.48224 31.8746 3.01724 27.7309 4.88724 24.3309L9.83849 15.3208L14.471 6.88457C16.4047 3.37832 21.4622 3.37832 23.396 6.88457L28.0497 15.3208L30.281 19.3796L33.001 24.3309C34.871 27.7309 32.406 31.8746 28.5385 31.8746Z" stroke="#9E9E9E" stroke-width="4" stroke-linecap="round" stroke-linejoin="round"/>
</svg>
